<?xml version="1.0" encoding="UTF-8"?>
<svg id="Layer_1" xmlns="http://www.w3.org/2000/svg" viewBox="0 0 1422.74 1698.64">
  <defs>
    <style>
      .cls-1 {
        fill: #1877f2;
      }
    </style>
  </defs>
  <path class="cls-1" d="M1316.68,299.48c-30.15,13.15-56.44,26.53-84.06,36.13-28.23,9.81-40.87,24.93-35.94,56.37,3.6,22.97.63,46.96.75,70.5.08,15.39-6.18,25.03-20.42,33.11-23.99,13.6-44.88,12.06-69.19-.01-25.69-12.76-53.17-24.27-81.15-29.53-45.27-8.51-124.7,16.46-134.95,84.81-6.26,41.79-7.2,84.4-9.84,126.69-1.03,16.57-.17,33.26-.17,51.8,8.05,0,14.04,0,20.03,0,64.45,0,128.89-.02,193.34.04,18.61.02,24.81,5.4,24.94,23.23.38,52.67.56,105.35.29,158.02-.11,21.99-6.17,27.19-28.48,27.28-59.39.24-118.79.44-178.18.79-6.14.04-12.29,1.52-18.41,1.35-11.27-.31-13.76,5.19-13.73,15.6.39,130,.37,260,.49,390,.07,77.3.06,154.61.41,231.91.12,25.76,1.55,51.51,1.81,77.27.28,28.72-12.75,43.24-41.25,43.52-54.9.56-109.81.27-164.71-.55-25.69-.39-39.08-16.32-39.16-44.38-.27-103.67-.36-207.33-.57-311-.25-123.8-.52-247.6-.9-371.4-.03-9.4-1.02-18.79-1.72-30.89-18.88,0-36.68.24-54.46-.07-19.01-.33-38.02-1.55-57.03-1.69-17.84-.13-25.91-10.66-26.12-26.32-.73-53.23-.81-106.47-.05-159.7.22-15.12,10.43-22.45,25.9-22.37,36.35.21,72.71.07,112.63.07,0-34.77-.23-68.13.05-101.5.57-69.38,1.05-138.95,22.63-205.85,7.13-22.11,18.6-42.84,28.3-64.1,2.71-5.94,6.19-11.53,10.04-18.61-50.03-23.13-98.52-45.51-146.97-67.97-10.64-4.93-21.13-10.2-31.74-15.2-12.52-5.9-17.81-15.83-18.04-29.51-.22-13.29,8.64-18.2,18.61-22.9,135.31-63.72,270.59-127.49,405.86-191.29,8.07-3.81,15.65-10.19,24.04-11.43,11.5-1.7,25.27-3.27,35.13,1.36,140.96,66.15,281.4,133.42,422.07,200.18,11.89,5.64,17.99,15.08,15.34,26.7-2.09,9.17-8.07,22.82-14.94,24.65-42.02,11.17-48.35,39.01-46.83,77.8,2.8,71.49.71,143.18.49,214.78-.06,19.56-9.19,30.12-24.32,29.06-14.61-1.03-21.43-9.57-21.33-28.3.34-62.73,1-125.46,1.47-188.19.14-18.84.02-37.69.02-60.25Z"/>
  <path class="cls-1" d="M282.78,933.57c0,184.34,0,368.69,0,553.03,0,28.69.99,29.69,28.91,29.82,28.11.13,33.86,6.2,33.9,34.75.05,34.74.6,69.48.56,104.22-.04,33.64-8.21,41.56-41.39,41.46-88.51-.26-177.01-.43-265.52-.74-30.4-.11-39.03-8.7-39.14-38.91-.12-33.07-.17-66.14.06-99.21.21-30.04,6.64-37.18,36.27-39.04,15.32-.96,20.51-7.18,20.43-23.16-1.26-254.34-2.3-508.69-2.43-763.03-.06-118.22,1.98-236.45,2.95-354.68.24-29.63-2.06-32.19-30.75-31.89-15.37.16-23.32-6.86-23.65-21.72-.81-36.4-1.87-72.83-1.32-109.23.39-25.53,11.31-35.09,36.78-35.03,89.1.21,178.21.52,267.31,1.05,26.37.16,40.3,14.52,40.33,40.77.03,29.7.49,59.42-.42,89.09-.93,30.19-7.66,35.94-36.94,35.11-19.33-.55-29.46,8.8-29.46,27.65-.04,186.56-.02,373.12-.02,559.69h3.53Z"/>
</svg>