<?xml version="1.0" encoding="UTF-8"?>
<svg id="Layer_1" xmlns="http://www.w3.org/2000/svg" viewBox="0 0 1246.39 1778.8">
  <path d="M459.46,57.38c9.93-19.89,19.13-38.3,28.66-57.38,26.24,17.22,44.28,40.31,49.69,71.08,3.07,17.45,2.12,35.63,2.71,53.49.32,9.68.06,19.39.06,29.66h52.21c0-8.29,0-16.37,0-24.46.02-22.97,0-45.94.09-68.92.06-16.99,12.9-29.72,30.73-30.38,15.06-.56,29.59,14.99,29.73,30.84.24,27.38.06,54.76.06,82.13,0,3.41,0,6.81,0,10.8h38.67c2.81-10.61,4.92-21.94,8.79-32.63,13.1-36.19,36.23-64.1,70.45-82.37,12.16-6.49,24.36-8.38,36.13.68,17,13.08,15.6,39.03-3.19,50.08-25.89,15.23-42.96,37.02-52.1,66.33,19.26,1.72,32.48,13.04,45.34,25.96,73.89,74.31,147.98,148.4,222.41,222.17,10.21,10.12,14.52,21.01,14.49,35.1-.29,121.47-.19,242.94-.37,364.41-.02,10.69,3.18,19.39,11.06,26.83,58.37,55.04,116.65,110.17,174.81,165.42,10.83,10.28,23.17,19.74,25.24,36.22.47,3.71,1.17,7.43,1.17,11.14.06,114.86.03,229.72.1,344.59,0,10.26-2.83,19.37-10.27,26.37-21.76,20.47-43.65,40.81-65.78,60.88-42.41,38.45-85.18,76.5-127.44,115.1-12.24,11.18-24.72,18.88-42.37,18.84-140.98-.32-281.96.01-422.94.07-108.88.04-217.77-.21-326.65.16-17.39.06-31.05-5.15-44.05-17.03-59.69-54.51-120.2-108.11-180.13-162.36-10.75-9.73-23.53-18.51-25.64-34.81-.52-4.03-1.04-8.1-1.05-12.15C.01,1270.59.04,1157.93,0,1045.27c0-15.48,4.81-28.46,16.43-39.4,55.91-52.61,111.5-105.56,167.2-158.38,5.94-5.63,11.7-11.45,17.85-16.84,8.93-7.83,12.07-17.42,12.04-29.27-.25-122.41-.07-244.83-.31-367.24-.02-11.54,3.67-20.61,11.67-28.56,78.56-78.08,157.06-156.23,235.62-234.31,2.43-2.42,5.04-5.31,8.11-6.31,11.97-3.89,13.36-12.41,12.59-23.39-.88-12.52-.53-25.17-.09-37.75.68-19.17-1.96-36.62-21.66-46.43ZM622.81,1548.41c118.31,0,236.61-.08,354.92.12,12.94.02,23.75-3.36,33.22-12.51,13.11-12.67,26.88-24.65,40.41-36.88,34.42-31.1,31.95-22.7,32.1-72.47.36-119.25.17-238.5.15-357.75,0-32.41-.34-64.81-.23-97.22.05-13.56-3.66-24.68-14.28-34.19-22.26-19.92-44.12-40.35-65.21-61.5-12.58-12.61-25.57-15.82-42.52-10.39-107.05,34.29-214.18,68.33-321.52,101.68-9.83,3.06-22.21,3.45-31.96.43-108.01-33.47-215.78-67.69-323.47-102.17-15.92-5.1-28.5-2.35-40.29,9.14-22.75,22.17-45.9,43.95-68.93,65.83-7.45,7.08-11.02,15.36-11.01,25.9.17,162.67.17,325.34,0,488.01-.01,10.93,3.71,19.52,11.62,26.62,21.06,18.9,42.39,37.51,63.1,56.79,8.46,7.88,17.76,10.67,28.98,10.66,118.31-.16,236.61-.1,354.92-.1ZM623.19,217.01c-37.76,0-75.53.19-113.29-.16-7.94-.07-13.66,2.55-19.09,8.05-40.01,40.53-80.22,80.88-120.33,121.31-6.76,6.82-7.07,15.26-.93,22.71,5.17,6.27,11.85,8.62,19.96,8.56,33.67-.25,67.34-.29,101.01-.23,20.22.04,30.11,10.03,30.1,30.12-.02,53.5-.11,106.99-.11,160.49,0,4.08.1,8.23.85,12.21,2.65,14.1,18.36,28.43,36.34,18.76,14.87-7.99,30.53-14.49,45.56-22.19,12.85-6.59,25.12-7.95,38.42-.87,15.99,8.51,32.58,15.9,48.84,23.92,9.77,4.82,18.11,2.66,25.94-4.27,8.13-7.2,9.23-16.58,9.22-26.59-.06-53.81.11-107.62-.08-161.43-.04-12.48,4.01-22.5,15.66-27.55,5.21-2.26,11.58-2.49,17.43-2.52,32.73-.18,65.45.02,98.18.02,9.93,0,17.59-3.94,21.92-13.31,4.14-8.96-1.02-14.61-6.77-20.41-39.64-40.01-79.06-80.25-118.97-119.99-3.72-3.71-10.34-6.27-15.65-6.34-38.07-.53-76.15-.29-114.23-.28ZM622.93,643.78c-7.54,3.58-14.92,6.15-21.31,10.26-56.12,36.19-112.08,72.65-168.07,109.05-20.77,13.5-41.54,27-62.24,40.62-7.74,5.09-9.87,12.89-8.42,21.44,1.27,7.43,6.99,10.12,13.98,11.96,77.62,20.42,155.14,41.2,232.78,61.57,6.96,1.83,15.04,3.42,21.72,1.7,79.25-20.4,158.34-41.42,237.44-62.4,7.05-1.87,14.1-4.46,14.91-13.43.84-9.34-1.49-16.84-10.18-22.46-76.59-49.55-152.95-99.46-229.54-149-6.1-3.94-13.42-5.98-21.08-9.3ZM366.07,589.19v1.55c17.92,0,35.84.18,53.76-.04,23.55-.3,38.11-13.64,38.62-37.01.69-31.73.32-63.49.02-95.24-.11-11.4-7.26-18.55-18.16-18.58-46.52-.12-93.05-.17-139.56.27-4.87.05-10.32,2.56-14.45,5.44-9.92,6.92-12.29,17.72-12.36,29.06-.13,24.52-.14,49.04.05,73.56.04,5.61.65,11.31,1.77,16.81,2.72,13.41,11.94,23.24,25.42,23.91,21.58,1.07,43.25.29,64.89.29ZM877.47,439.72v.07c-22.63,0-45.26-.1-67.89.04-13.34.08-20.17,7.04-20.2,20.34-.07,30.17-.06,60.35-.03,90.52.03,24.49,12.81,38.66,37.07,38.95,38.96.47,77.95.17,116.91-.39,17.74-.25,28.85-11.51,29.08-29.08.4-30.48.4-60.98-.03-91.46-.2-14.18-9.52-29.98-29.85-29.17-21.65.86-43.37.19-65.06.19ZM103.88,1208.66c0-53.48.05-106.96-.08-160.44-.01-4.63-.61-9.4-1.86-13.84-3.21-11.38-12.43-14.38-21.53-7.1-14.17,11.34-21.99,25.01-21.86,44.39.67,98.77.36,197.55.37,296.33,0,15.05,10.37,26.55,24.34,26.83,13.31.26,20.62-8.81,20.62-25.73.02-53.48,0-106.96,0-160.44ZM1143.49,1207.49h-.2c0,49.41-.04,98.81.05,148.22.01,7.53.19,15.12,1.14,22.57,1.03,8.12,5.55,13.61,14.13,15.36,17.04,3.48,29.17-6.64,29.18-24.78.03-99.13-.39-198.26.36-297.38.15-19.48-7.34-33.03-21.89-44.18-9.41-7.21-19.86-3.35-21.73,8.42-.93,5.86-.98,11.91-.99,17.88-.07,51.29-.04,102.59-.04,153.88ZM341.81,652.84s0-.08,0-.13c-15.72,0-31.44-.25-47.16.07-13.79.28-20.67,7.48-20.73,21.11-.1,20.44-.11,40.87-.02,61.31.08,18.43,15.93,28.57,31.61,19.16,32.21-19.33,63.93-39.49,95.64-59.64,8.67-5.51,11.4-16.08,8.31-26.85-2.49-8.66-10.37-14.78-20.49-14.96-15.71-.28-31.44-.07-47.15-.07ZM906.46,652.68c-16.03,0-32.06-.17-48.08.06-10.87.15-18.48,5.87-21.27,15.24-3.44,11.55-.49,20.75,9.15,27.12,9.15,6.03,18.51,11.74,27.81,17.54,22.05,13.74,44.13,27.42,66.17,41.18,14.29,8.92,33.78.96,32.58-18.21-1.27-20.35-.27-40.84-.29-61.26-.02-14.96-6.19-21.46-20.81-21.6-15.08-.14-30.17-.03-45.25-.06Z"/>
  <path d="M978.16,1718.34c71.43,0,142.85-.03,214.28.03,16.07.01,28.78,10.78,31.08,25.9,2.26,14.88-7.44,29.35-22.69,33.51-2.97.81-6.19.99-9.29.99-141.91.04-283.82.04-425.73.02-15.78,0-27.59-9.18-30.75-23.67-3.28-15.06,3.48-29.68,16.98-35.01,4.49-1.77,9.75-2.21,14.67-2.22,70.48-.13,140.96-.09,211.45-.09,0,.18,0,.36,0,.54Z"/>
  <path d="M267.32,1778.8c-70.45,0-140.89.01-211.34,0-19.76,0-33.07-12.37-33.04-30.61.04-17.47,13.58-29.83,32.83-29.83,140.58-.01,281.16,0,421.73.01,19.18,0,32.42,12.4,32.37,30.15-.05,18-13.04,30.26-32.17,30.26-70.13.02-140.26,0-210.4.01Z"/>
</svg>